<?xml version="1.0" encoding="utf-8"?>
<!-- Generator: Adobe Illustrator 23.0.1, SVG Export Plug-In . SVG Version: 6.00 Build 0)  -->
<svg version="1.1" id="Layer_1" xmlns="http://www.w3.org/2000/svg" xmlns:xlink="http://www.w3.org/1999/xlink" x="0px" y="0px"
	 width="309.7px" height="417.8px" viewBox="0 0 309.7 417.8" style="enable-background:new 0 0 309.7 417.8;" xml:space="preserve"
	>
<style type="text/css">
	.st0{opacity:0.61;}
	.st1{fill-rule:evenodd;clip-rule:evenodd;fill:#B76363;}
	.st2{opacity:0.5;fill-rule:evenodd;clip-rule:evenodd;fill:#B76363;}
	.st3{opacity:0.47;fill-rule:evenodd;clip-rule:evenodd;fill:#B76363;}
	.st4{opacity:0.46;fill-rule:evenodd;clip-rule:evenodd;fill:#B76363;}
	.st5{opacity:0.57;}
	.st6{opacity:0.55;}
</style>
<g class="st0">
	<polygon class="st1" points="86.8,56 60.4,39.3 37,46.2 15.2,88.7 22.1,101.5 1,113.9 0,118.9 60.3,102.5 	"/>
</g>
<g class="st0">
	<polygon class="st1" points="86.8,56 111.8,58.2 144.5,79.8 183.6,80.4 180.2,104.9 151.8,117.9 166.2,131.3 185.2,111.7 
		218.3,150.7 195.9,172.5 158.8,174.4 145.1,158.5 77.5,151.8 60.3,102.5 	"/>
</g>
<g class="st0">
	<polygon class="st1" points="187.9,105.3 206.2,118.4 220.6,97.9 212.3,63.1 187.9,55.2 175.5,67.2 190.3,80 	"/>
</g>
<g>
	<polygon class="st2" points="220.2,38.1 282.1,6.6 309.7,29.3 292.6,91.2 238.6,128.7 231.3,99.7 235.2,59.2 222.4,53.6 	"/>
</g>
<g>
	<polygon class="st1" points="119.2,50.2 131.3,36.9 161.6,51.3 150.2,75.1 	"/>
</g>
<g>
	<polygon class="st1" points="232.9,0 172.4,20.5 165,39.6 177.1,50.4 206,48 247.4,11.9 	"/>
</g>
<g>
	<polygon class="st3" points="77.5,151.8 68.3,180 80.5,201 120.4,218.3 148.6,209.4 154.4,220.7 161.9,217.6 167.5,195.7 
		195.9,172.5 158.8,174.4 145.1,158.5 	"/>
</g>
<g>
	<polygon class="st4" points="120.4,218.3 80.5,201 86.8,225.8 100.6,225.7 102.8,235.3 128.7,245.6 132.4,238.5 138.3,237.7 
		142.4,230.1 134.3,230.7 124.1,236.9 118.9,228.5 	"/>
</g>
<g class="st5">
	<polygon class="st1" points="128.7,245.6 132.4,238.5 135.8,238.1 136.1,242.7 138.2,243.4 133.4,247.9 	"/>
</g>
<g class="st6">
	<polygon class="st1" points="136.1,242.7 139.7,241.2 138.3,237.7 135.8,238.1 	"/>
</g>
<polygon class="st1" points="133.4,247.9 138.3,249.6 138.8,247.2 135.8,245.8 "/>
<polygon class="st1" points="138.3,249.6 140.6,248.9 141.3,247.5 148.8,244.9 146,242.3 138.2,243.4 135.8,245.8 138.8,247.2 "/>
<polygon class="st1" points="138.3,249.6 142.2,253.4 147.7,254.3 148.8,244.9 141.3,247.5 140.6,248.9 "/>
<polygon class="st1" points="148.9,260.2 149.6,257.1 147.7,254.3 142.2,253.4 145.1,258.8 "/>
<polygon class="st1" points="160.5,258.9 157.1,256.7 149.6,257.1 148.9,260.2 153.1,262.1 159.5,262 "/>
<polygon class="st1" points="160.5,258.9 170.4,249.3 174.5,251.3 170.4,262 182.1,265.2 181.8,274 176.2,277.5 176.4,287.4 
	157.6,275.3 159.5,262 "/>
<polygon class="st1" points="157,289.1 154,287.8 152.8,282.1 157.6,275.3 165.5,280.4 "/>
<polygon class="st1" points="154,287.8 151.9,291.7 164.6,310.7 176.8,319.4 179.4,318 179,302.5 168.1,298.7 168.2,294 
	176.4,287.4 165.5,280.4 157,289.1 "/>
<polygon class="st2" points="176.8,319.4 174.5,392.6 181.6,411.4 192.5,417.8 194.5,416 192.4,407.7 183.5,403.7 182.1,362.7 
	180.2,350.2 182.5,335.1 184.9,329.8 179.4,318 "/>
<polyline class="st1" points="183.5,403.7 192.4,407.7 199,374.6 210.7,358.4 205.1,355.8 205.6,347.3 210.8,340.5 203.8,333.9 
	194,326.8 184.9,329.8 182.5,335.1 180.2,350.2 182.1,362.7 "/>
<polygon class="st1" points="210.7,358.4 213.8,358.4 216,355 215.2,350.6 207,345.5 205.6,347.3 205.1,355.8 "/>
<polygon class="st1" points="179,302.5 186.4,299.5 188.1,305 197.5,308.8 198.3,312.8 203.1,312.8 204.4,318.3 203.2,322.2 
	198.7,320.8 194.3,322.2 194,326.8 184.9,329.8 179.4,318 "/>
<polygon class="st1" points="204.2,326.4 203.2,322.2 198.7,320.8 194.3,322.2 194,326.8 203.8,333.9 209.6,339.4 212.2,334.8 
	212.3,331.6 207.9,327.2 "/>
<polygon class="st1" points="181.8,274 184.5,276.7 190.6,273.2 196.8,266.5 196.8,259 190.3,254.6 174.5,251.3 170.4,262 
	182.1,265.2 "/>
<polygon class="st4" points="216,355 225.9,340.3 224.5,336 233.2,329.1 240.5,326.4 244.9,312.4 243.9,306.3 253.2,295 
	246.7,284.9 219.7,276.6 216.3,268.9 212.3,274.3 205.2,273.8 200.5,275.6 198,272.7 199.2,269.3 196.8,266.5 190.6,273.2 
	184.5,276.7 181.8,274 176.2,277.5 176.4,287.4 168.2,294 168.1,298.7 179,302.5 186.4,299.5 188.1,305 197.5,308.8 198.3,312.8 
	203.1,312.8 204.4,318.3 203.2,322.2 204.2,326.4 207.9,327.2 212.3,331.6 212.2,334.8 209.6,339.4 210.8,340.5 207,345.5 
	215.2,350.6 "/>
<polygon class="st1" points="196.8,259 205,264.7 202.4,268.7 205.2,273.8 200.5,275.6 198,272.7 199.2,269.3 196.8,266.5 "/>
<polygon class="st1" points="216.3,268.9 211.9,265.6 210,266.7 207.7,274 212.3,274.3 "/>
<polygon class="st1" points="211.9,265.6 205,264.7 202.4,268.7 205.2,273.8 207.7,274 210,266.7 "/>
</svg>
